<?xml version="1.0" encoding="utf-8"?>
<!-- Generator: Adobe Illustrator 16.0.0, SVG Export Plug-In . SVG Version: 6.00 Build 0)  -->
<!DOCTYPE svg PUBLIC "-//W3C//DTD SVG 1.1//EN" "http://www.w3.org/Graphics/SVG/1.1/DTD/svg11.dtd">
<svg version="1.1" id="Layer_1" xmlns="http://www.w3.org/2000/svg" xmlns:xlink="http://www.w3.org/1999/xlink" x="0px" y="0px"
	 width="500px" height="96px" viewBox="0 0 500 96" enable-background="new 0 0 500 96" xml:space="preserve">
<g>
	<g>
		<path fill="#212121" d="M25,57.68c0,0,22.075-20.748,52.583-19.378l-0.612-6.087C76.97,32.214,41.363,35.497,25,57.68z"/>
		<path fill="#212121" d="M25.951,17.234c11.725-4.265,24.263-1.787,33.358,5.449l9.844-3.581
			C58.657,9.398,43.229,5.761,28.867,10.984C8.676,18.327-1.862,40.439,5.022,60.667C-0.942,42.97,8.291,23.657,25.951,17.234z"/>
		<path fill="#212121" d="M79.151,46.908c-1.159-0.193-4.156-0.621-8.41-0.665C45.881,45.812,29.226,59.08,29.226,59.08
			c10.532-5.081,15.806-4.463,18.102-3.549l-0.002,0.002c-0.125,0.203-0.255,0.402-0.388,0.601
			c-0.007,0.009-0.015,0.019-0.021,0.029c-0.12,0.177-0.244,0.351-0.37,0.522c-0.027,0.037-0.055,0.074-0.083,0.11
			c-0.111,0.149-0.226,0.3-0.342,0.445c-0.028,0.036-0.056,0.071-0.084,0.104c-0.29,0.361-0.595,0.709-0.912,1.047
			c-0.021,0.021-0.042,0.041-0.063,0.063c-0.135,0.142-0.273,0.282-0.413,0.419c-0.041,0.04-0.083,0.079-0.124,0.119
			c-0.128,0.122-0.259,0.244-0.39,0.363c-0.041,0.037-0.081,0.074-0.122,0.108c-0.166,0.147-0.333,0.293-0.505,0.435
			c-0.004,0.004-0.008,0.008-0.013,0.012c-0.179,0.146-0.362,0.291-0.548,0.434c-0.041,0.03-0.082,0.059-0.124,0.09
			c-0.142,0.105-0.287,0.211-0.432,0.312c-0.058,0.039-0.116,0.079-0.173,0.119c-0.139,0.094-0.28,0.186-0.422,0.277
			c-0.055,0.037-0.109,0.071-0.166,0.105c-0.185,0.116-0.373,0.229-0.565,0.339c-0.009,0.007-0.018,0.013-0.028,0.019
			c-0.201,0.113-0.406,0.225-0.613,0.332c-0.06,0.031-0.119,0.062-0.179,0.092c-0.149,0.074-0.301,0.15-0.452,0.221
			c-0.073,0.035-0.146,0.068-0.218,0.102c-0.149,0.068-0.302,0.135-0.455,0.198c-0.067,0.03-0.134,0.06-0.2,0.085
			c-0.22,0.09-0.44,0.178-0.664,0.26c-9.274,3.371-19.527-1.406-22.902-10.672c-3.376-9.266,1.405-19.512,10.679-22.886
			c0.258-0.094,0.518-0.179,0.778-0.26l0.046-0.147c-0.609,0.178-1.217,0.374-1.824,0.595C9.899,35.033,2.093,51.758,7.603,66.884
			c0.979,2.688,2.315,5.144,3.931,7.335c1.049,1.424,2.217,2.734,3.485,3.924c3.017,2.834,6.597,4.98,10.476,6.322
			c8.751,3.577,18.813,4.037,28.398,0.553c16.338-5.942,26.355-21.556,25.937-38.014c-0.049-0.007-0.097-0.014-0.145-0.021
			C79.506,46.955,79.329,46.933,79.151,46.908z"/>
		<path fill="#212121" d="M23.131,56.005c0,0,9.753-18.061,29.665-23.703l-1.699-3.784C51.097,28.519,28.903,38.241,23.131,56.005z"
			/>
	</g>
	<g>
		<g enable-background="new    ">
			<path fill="#212121" d="M103.675,72.345c-6.263-6.229-9.394-14.032-9.394-23.412c0.028-9.175,3.167-16.893,9.416-23.15
				c6.248-6.257,13.993-9.387,23.235-9.387c9.329,0,17.335,2.904,24.02,8.711l-8.719,9.539c-4.446-3.485-9.546-5.227-15.301-5.227
				c-5.871,0.029-10.601,1.859-14.189,5.488c-3.589,3.63-5.383,8.276-5.383,13.938c0.028,6.069,1.845,10.889,5.449,14.461
				s8.34,5.357,14.211,5.357c4.708,0,8.326-0.929,10.854-2.787V54.682l-8.718,0.045V42.53h21.796v30.49
				c-6.656,5.809-14.662,8.712-24.02,8.712C117.69,81.703,109.938,78.574,103.675,72.345z"/>
			<path fill="#212121" d="M164.116,16.352h13.034v65.379h-13.034V16.352z"/>
			<path fill="#212121" d="M186.827,81.731l26.155-65.336h13.078l26.112,65.292l-13.906,0.044l-3.923-10.019H204.7l-3.923,10.019
				H186.827z M219.87,33.818l-9.939,24.828h19.617L219.87,33.818z"/>
			<path fill="#212121" d="M261.937,81.731V16.352h25.196c20.343,0,30.515,10.904,30.515,32.711
				c0,21.778-10.172,32.668-30.515,32.668H261.937z M287.133,68.708c11.596-0.028,17.408-6.577,17.438-19.645
				c-0.029-13.067-5.842-19.601-17.438-19.601h-12.119v39.246H287.133z"/>
			<path fill="#212121" d="M331.684,81.731V16.396h4.359l28.336,32.232l28.378-32.232h4.359v65.336h-13.077l-0.045-37.895
				l-19.615,21.779l-19.617-21.779v37.895H331.684z"/>
			<path fill="#212121" d="M410.15,16.352h13.033v65.379H410.15V16.352z"/>
			<path fill="#212121" d="M436.306,81.731V16.396h4.358l40.977,40.944V16.396h13.078v65.336h-4.795l-40.541-40.508v40.508H436.306z
				"/>
		</g>
	</g>
</g>
</svg>
